# xmcd
#
# Track frame offsets: 
#        150
#        11234
#        24297
#        35263
#        48377
#        60357
#        71686
#        83712
#        97336
#        112557
#        126772
#        141569
#        152217
#        163873
#        177601
#        206347
#        216416
#        233698
#        244856
#        258696
#        269398
#        282949
#        295307
#        307360
#        325961
#        338742
#        353151
#        369240
#
# Disc length: 5152 seconds
#
# Revision: 0
# Processed by: cddbd v1.5.2PL0 Copyright (c) Steve Scherf et al.
# Submitted via: ExactAudioCopyFreeDBPlugin 1.0
#
DISCID=b4141e1c
DTITLE=Various Artist - Dim Lights, Thick Smoke and Hillbilly Music: Co
DTITLE=untry and Western Hit Parade 1970
DYEAR=2013
DGENRE=Country
TTITLE0=Conway Twitty - Hello Darlin'
TTITLE1=Lynn Anderson - Rose Garden
TTITLE2=Jerry Lee Lewis - Once More With Feeling
TTITLE3=Merle Haggard - The Fightin' Side Of Me
TTITLE4=Johnny Cash - What Is Truth
TTITLE5=Bobby Bare - How I Got To Memphis
TTITLE6=Roy Clark - Thank God And Greyhound
TTITLE7=Loretta Lynn - Coal Miner's Daughter
TTITLE8=Tompall and The Glaser Brothers - Gone Girl
TTITLE9=Dolly Parton - Mule Skinner Blues (Blue Yodel No. 8)
TTITLE10=Guy Drake - Welfare Cadilac
TTITLE11=Jerry Reed - Amos Moses
TTITLE12=Sammi Smith - Help Me Make It Through the Night
TTITLE13=Tom T. Hall - A Week In A Country Jail
TTITLE14=Flying Burrito Brothers - Wild Horses
TTITLE15=Charley Pride - Is Anybody Goin' To San Antone
TTITLE16=Ray Price - For The Good Times
TTITLE17=Tammy Wynette - Run, Woman, Run
TTITLE18=George Jones - A Good Year For The Roses
TTITLE19=Waylon Jennings - The Taker
TTITLE20=Dolly Parton - Joshua
TTITLE21=Jerry Lee Lewis - There Must Be More To Love Than This
TTITLE22=Loretta Lynn and Conway Twitty - After The Fire Is Gone
TTITLE23=Johnny Cash - Sunday Morning Coming Down
TTITLE24=Billy Joe Shaver - Chicken On The Ground
TTITLE25=Conway Twitty - Fifteen Years Ago
TTITLE26=Marty Robbins - My Woman, My Woman, My Wife
TTITLE27=Mickey Newbury - How I Love Them Old Songs
EXTD=
EXTT0=
EXTT1=
EXTT2=
EXTT3=
EXTT4=
EXTT5=
EXTT6=
EXTT7=
EXTT8=
EXTT9=
EXTT10=
EXTT11=
EXTT12=
EXTT13=
EXTT14=
EXTT15=
EXTT16=
EXTT17=
EXTT18=
EXTT19=
EXTT20=
EXTT21=
EXTT22=
EXTT23=
EXTT24=
EXTT25=
EXTT26=
EXTT27=
PLAYORDER=
